<?xml version="1.0" encoding="UTF-8"?>
<!DOCTYPE svg PUBLIC "-//W3C//DTD SVG 1.1//EN" "http://www.w3.org/Graphics/SVG/1.1/DTD/svg11.dtd">
<!-- Creator: CorelDRAW 2020 (64 Bit) -->
<svg xmlns="http://www.w3.org/2000/svg" xml:space="preserve" width="290px" height="25mm" version="1.1" style="shape-rendering:geometricPrecision; text-rendering:geometricPrecision; image-rendering:optimizeQuality; fill-rule:evenodd; clip-rule:evenodd"
viewBox="0 0 10900 2500"
 xmlns:xlink="http://www.w3.org/1999/xlink"
 xmlns:xodm="http://www.corel.com/coreldraw/odm/2003">
 <defs>
  <style type="text/css">
   <![CDATA[
    .fil0 {fill:#cccccc;fill-rule:nonzero}
    .fil1 {fill:#FFA07A;fill-rule:nonzero}
   ]]>
  </style>
 </defs>
 <g id="Camada_x0020_1">
  <metadata id="CorelCorpID_0Corel-Layer"/>
  <g id="_2185158082144">
   <path class="fil0" d="M1581.89 1527.47c19.88,0 37.05,7.23 51.49,21.68 14.46,14.46 21.69,31.61 21.69,51.49l0 287.28c0,19.88 -7.23,37.05 -21.69,51.49 -14.44,14.46 -31.61,21.68 -51.49,21.68l-1284.6 0c-19.88,0 -37.05,-7.22 -51.5,-21.68 -14.46,-14.44 -21.68,-31.61 -21.68,-51.49l0 -1750.77c0,-19.87 7.22,-37.03 21.68,-51.49 14.45,-14.45 31.62,-21.68 51.5,-21.68l1262.92 0c19.88,0 37.05,7.23 51.51,21.68 14.44,14.46 21.66,31.62 21.66,51.49l0 287.28c0,19.88 -7.22,37.05 -21.66,51.49 -14.46,14.46 -31.63,21.69 -51.51,21.69l-834.73 0 0 292.69 775.11 0c19.88,0 37.05,7.23 51.49,21.69 14.46,14.46 21.69,31.61 21.69,51.49l0 287.28c0,19.88 -7.23,37.03 -21.69,51.49 -14.44,14.46 -31.61,21.68 -51.49,21.68l-775.11 0 0 303.54 856.41 0zm594.53 -365.88c-3.61,27.1 -5.42,58.73 -5.42,94.86 0,36.14 1.81,67.76 5.42,94.86 5.42,65.05 29.81,117.44 73.17,157.18 43.37,39.76 101.18,59.63 173.45,59.63 59.63,0 105.26,-8.57 136.87,-25.74 31.62,-17.17 57.36,-41.11 77.24,-71.82 9.03,-14.46 19.43,-27.1 31.16,-37.95 11.75,-10.84 27.55,-16.25 47.43,-16.25l355.04 0c19.88,0 37.48,7.22 52.84,21.68 15.37,14.45 22.14,31.61 20.33,51.49 -1.8,28.91 -13.55,71.37 -35.24,127.38 -21.68,56 -59.61,111.56 -113.81,166.67 -54.22,55.11 -127.39,102.99 -219.53,143.64 -92.15,40.65 -209.59,60.98 -352.33,60.98 -101.17,0 -195.58,-14.45 -283.2,-43.37 -87.63,-28.91 -164.42,-70.47 -230.37,-124.67 -65.95,-54.2 -118.35,-119.7 -157.18,-196.48 -38.86,-76.79 -60.09,-163.06 -63.7,-258.82 -1.8,-27.11 -2.71,-63.24 -2.71,-108.41 0,-45.17 0.91,-81.3 2.71,-108.4 3.61,-95.76 24.84,-182.04 63.7,-258.82 38.83,-76.79 91.23,-142.29 157.18,-196.49 65.95,-54.2 142.74,-95.76 230.37,-124.67 87.62,-28.9 182.03,-43.36 283.2,-43.36 142.74,0 260.18,20.33 352.33,60.98 92.14,40.65 165.31,88.53 219.53,143.64 54.2,55.11 92.13,110.66 113.81,166.67 21.69,56.02 33.44,98.47 35.24,127.38 1.81,19.87 -4.96,37.04 -20.33,51.5 -15.36,14.44 -32.96,21.68 -52.84,21.68l-355.04 0c-19.88,0 -35.68,-5.43 -47.43,-16.27 -11.73,-10.84 -22.13,-23.48 -31.16,-37.94 -19.88,-30.72 -45.62,-54.66 -77.24,-71.82 -31.61,-17.16 -77.24,-25.75 -136.87,-25.75 -72.27,0 -130.08,19.88 -173.45,59.63 -43.36,39.74 -67.75,92.15 -73.17,157.18zm1017.31 -536.61c0,-19.87 7.22,-37.03 21.68,-51.49 14.45,-14.45 31.62,-21.68 51.49,-21.68l341.48 0c19.88,0 37.04,7.23 51.5,21.68 14.45,14.46 21.68,31.62 21.68,51.49l0 685.67c0,77.7 17.17,140.03 51.49,187.01 34.32,46.97 91.25,70.46 170.74,70.46 79.49,0 135.97,-23.49 169.39,-70.46 33.42,-46.98 50.13,-109.31 50.13,-187.01l0 -685.67c0,-19.87 7.23,-37.03 21.69,-51.49 14.44,-14.45 31.61,-21.68 51.49,-21.68l341.48 0c19.87,0 37.03,7.23 51.49,21.68 14.46,14.46 21.68,31.62 21.68,51.49l0 1262.94c0,19.88 -7.22,37.05 -21.68,51.49 -14.46,14.46 -31.62,21.68 -51.49,21.68l-314.38 0c-19.88,0 -37.03,-7.22 -51.49,-21.68 -14.46,-14.44 -21.69,-31.61 -21.69,-51.49l0 -62.34c-14.46,19.88 -32.06,39.3 -52.84,58.28 -20.78,18.97 -46.53,36.13 -77.24,51.49 -30.72,15.36 -66.4,28 -107.06,37.93 -40.64,9.95 -88.97,14.92 -144.99,14.92 -175.26,0 -314.82,-49.69 -418.72,-149.06 -103.89,-99.37 -155.83,-255.65 -155.83,-468.86l0 -745.3zm2413.02 1363.22c-52.39,0 -98.46,-5.42 -138.2,-16.27 -39.76,-10.84 -74.08,-24.39 -103,-40.64 -28.91,-16.27 -53.3,-33.89 -73.18,-52.85 -19.86,-18.97 -36.12,-36.59 -48.78,-52.86l0 577.27c0,19.88 -7.22,37.04 -21.67,51.49 -14.46,14.46 -31.63,21.68 -51.5,21.68l-341.48 0c-19.87,0 -37.04,-7.22 -51.49,-21.68 -14.45,-14.45 -21.69,-31.61 -21.69,-51.49l0 -1777.87c0,-19.87 7.24,-37.03 21.69,-51.49 14.45,-14.45 31.62,-21.68 51.49,-21.68l327.93 0c19.88,0 37.04,7.23 51.5,21.68 14.45,14.46 21.68,31.62 21.68,51.49l0 62.34c16.26,-18.07 33.87,-37.04 52.84,-56.92 18.98,-19.86 42.47,-37.48 70.47,-52.85 28,-15.35 62.33,-28 102.98,-37.93 40.66,-9.95 90.8,-14.91 150.41,-14.91 81.32,0 158.1,12.2 230.38,36.59 72.27,24.39 135.5,62.33 189.7,113.82 54.21,51.49 98.03,116.09 131.45,193.78 33.42,77.69 51.94,169.83 55.55,276.44 1.81,27.1 2.71,63.68 2.71,109.76 0,46.07 -0.9,82.65 -2.71,109.76 -3.61,106.6 -22.13,198.75 -55.55,276.44 -33.42,77.69 -77.24,142.28 -131.45,193.77 -54.2,51.5 -117.43,89.9 -189.7,115.19 -72.28,25.29 -149.06,37.94 -230.38,37.94zm121.96 -655.87c5.43,-50.58 5.43,-101.17 0,-151.76 -5.42,-63.24 -26.2,-118.35 -62.32,-165.32 -36.15,-46.98 -96.67,-70.47 -181.59,-70.47 -39.74,0 -74.08,6.33 -102.99,18.97 -28.9,12.66 -52.84,29.36 -71.82,50.14 -18.97,20.78 -33.87,43.82 -44.72,69.11 -10.83,25.3 -18.05,51.49 -21.68,78.59 -3.61,27.1 -5.42,58.73 -5.42,94.86 0,36.14 1.81,67.76 5.42,94.86 3.63,27.1 10.85,53.3 21.68,78.59 10.85,25.29 25.75,48.33 44.72,69.11 18.98,20.78 42.92,37.5 71.82,50.14 28.91,12.65 63.25,18.97 102.99,18.97 84.92,0 145.44,-23.49 181.59,-70.46 36.12,-46.98 56.9,-102.08 62.32,-165.33zm1990.25 -178.86c1.8,27.1 2.71,61.87 2.71,104.34 0,42.46 -0.91,77.23 -2.71,104.33 -3.61,86.73 -23.49,168.03 -59.62,243.92 -36.14,75.89 -85.83,142.28 -149.06,199.21 -63.24,56.9 -139.58,101.62 -229.01,134.14 -89.43,32.52 -189.25,48.79 -299.47,48.79 -110.21,0 -210.03,-16.27 -299.47,-48.79 -89.44,-32.52 -165.78,-77.24 -229.01,-134.14 -63.24,-56.93 -112.93,-123.32 -149.07,-199.21 -36.13,-75.89 -56,-157.19 -59.62,-243.92 -1.8,-27.1 -2.7,-61.87 -2.7,-104.33 0,-42.47 0.9,-77.24 2.7,-104.34 1.81,-86.73 20.78,-168.03 56.91,-243.92 36.15,-75.88 86.28,-142.28 150.42,-199.19 64.14,-56.92 140.93,-102.08 230.37,-135.52 89.44,-33.42 189.26,-50.13 299.47,-50.13 110.22,0 210.04,16.71 299.47,50.13 89.43,33.44 166.22,78.6 230.37,135.52 64.14,56.91 113.83,123.31 149.05,199.19 35.23,75.89 54.66,157.19 58.27,243.92zm-986.5 195.13c5.42,68.66 30.26,122.41 74.53,161.26 44.27,38.84 102.53,58.26 174.81,58.26 72.27,0 130.54,-19.42 174.8,-58.26 44.27,-38.85 69.11,-92.6 74.53,-161.26 3.62,-27.1 5.43,-57.81 5.43,-92.15 0,-34.32 -1.81,-65.05 -5.43,-92.15 -5.42,-68.64 -30.26,-122.41 -74.53,-161.24 -44.26,-38.85 -102.53,-58.28 -174.8,-58.28 -72.28,0 -130.54,19.43 -174.81,58.28 -44.27,38.83 -69.11,92.6 -74.53,161.24 -3.61,27.1 -5.41,57.83 -5.41,92.15 0,34.34 1.8,65.05 5.41,92.15zm3293.83 539.32c0,19.88 -7.22,37.05 -21.67,51.49 -14.46,14.46 -31.63,21.68 -51.5,21.68l-327.93 0c-19.87,0 -37.03,-7.22 -51.49,-21.68 -14.46,-14.44 -21.68,-31.61 -21.68,-51.49l0 -693.8c0,-90.34 -16.72,-154.48 -50.14,-192.42 -33.42,-37.95 -82.65,-56.92 -147.7,-56.92 -63.24,0 -111.58,18.97 -145,56.92 -33.42,37.94 -50.13,102.08 -50.13,192.42l0 693.8c0,19.88 -7.23,37.05 -21.69,51.49 -14.46,14.46 -31.61,21.68 -51.49,21.68l-327.92 0c-19.88,0 -37.05,-7.22 -51.51,-21.68 -14.44,-14.44 -21.67,-31.61 -21.67,-51.49l0 -693.8c0,-90.34 -16.71,-154.48 -50.15,-192.42 -33.42,-37.95 -82.65,-56.92 -147.7,-56.92 -63.23,0 -111.56,18.52 -144.99,55.57 -33.42,37.03 -50.14,98.92 -50.14,185.64l0 701.93c0,19.88 -7.22,37.05 -21.67,51.49 -14.46,14.46 -31.63,21.68 -51.51,21.68l-341.48 0c-19.86,0 -37.03,-7.22 -51.49,-21.68 -14.44,-14.44 -21.68,-31.61 -21.68,-51.49l0 -1262.94c0,-19.87 7.24,-37.03 21.68,-51.49 14.46,-14.45 31.63,-21.68 51.49,-21.68l327.94 0c19.88,0 37.03,7.23 51.49,21.68 14.46,14.46 21.69,31.62 21.69,51.49l0 62.34c39.74,-50.59 88.07,-90.34 144.99,-119.25 56.91,-28.9 123.31,-43.36 199.19,-43.36 92.15,0 175.71,17.17 250.69,51.49 74.98,34.34 135.97,87.63 182.94,159.9 52.4,-68.66 116.08,-121.05 191.07,-157.19 74.98,-36.13 155.83,-54.2 242.55,-54.2 77.7,0 149.52,12.2 215.46,36.59 65.95,24.39 122.86,61.88 170.74,112.47 47.88,50.58 84.92,114.73 111.12,192.42 26.2,77.69 39.29,169.84 39.29,276.43l0 745.3z"/>
   <path class="fil1" d="M10639.78 1887.92c0,19.88 -7.22,37.05 -21.68,51.49 -14.45,14.46 -31.62,21.68 -51.49,21.68l-355.03 0c-19.88,0 -37.04,-7.22 -51.49,-21.68 -14.46,-14.44 -21.68,-31.61 -21.68,-51.49l0 -355.04c0,-19.86 7.22,-37.03 21.68,-51.49 14.45,-14.44 31.61,-21.68 51.49,-21.68l355.03 0c19.87,0 37.04,7.24 51.49,21.68 14.46,14.46 21.68,31.63 21.68,51.49l0 355.04z"/>
  </g>
 </g>
</svg>
